<?xml version="1.0" encoding="UTF-8"?>
<svg width="41px" height="41px" viewBox="0 0 41 41" version="1.1" xmlns="http://www.w3.org/2000/svg" xmlns:xlink="http://www.w3.org/1999/xlink">
    <!-- Generator: Sketch 55.2 (78181) - https://sketchapp.com -->
    <title>turbotax</title>
    <desc>Created with Sketch.</desc>
    <g id="turbotax" stroke="none" stroke-width="1" fill="none" fill-rule="evenodd">
        <g id="logo_turbotax-symbol" fill-rule="nonzero">
            <g id="Group-5">
                <path d="M20.97,0.84 C32.02,0.84 40.97,9.79 40.97,20.84 C40.97,31.89 32.02,40.84 20.97,40.84 C9.92,40.84 0.97,31.89 0.97,20.84 C0.97,9.79 9.92,0.84 20.97,0.84" id="Fill-1-5" fill="#D52B1E"></path>
                <path d="M16.49,28.17 C14.26,26.51 12.04,24.75 9.82,22.86 C9.04,24.57 8.35,26.31 7.73,28.11 C11.19,31.05 14.87,33.72 18.73,36.11 C22.04,27.46 27.66,19.88 34.97,14.2 C34.21,12.55 33.17,11.05 31.9,9.76 C25.48,14.72 20.21,21.01 16.46,28.2" id="Fill-4-3" fill="#FFFFFF"></path>
            </g>
        </g>
    </g>
</svg>